<svg width="161" height="55" viewBox="0 0 161 55" fill="none" xmlns="http://www.w3.org/2000/svg">
<g filter="url(#filter0_ii)">
<path d="M25 41C36.0457 41 45 32.0457 45 21C45 9.9543 36.0457 1 25 1C13.9543 1 5 9.9543 5 21C5 32.0457 13.9543 41 25 41Z" fill="url(#paint0_linear)"/>
<path d="M25 41C36.0457 41 45 32.0457 45 21C45 9.9543 36.0457 1 25 1C13.9543 1 5 9.9543 5 21C5 32.0457 13.9543 41 25 41Z" fill="url(#paint1_radial)"/>
</g>
<g filter="url(#filter1_ddi)">
<path d="M27.9705 30.1364C34.2902 30.1364 39.4132 25.0133 39.4132 18.6937C39.4132 12.3741 34.2902 7.25098 27.9705 7.25098C21.6509 7.25098 16.5278 12.3741 16.5278 18.6937C16.5278 25.0133 21.6509 30.1364 27.9705 30.1364Z" fill="url(#paint2_linear)"/>
<path d="M27.9705 30.1364C34.2902 30.1364 39.4132 25.0133 39.4132 18.6937C39.4132 12.3741 34.2902 7.25098 27.9705 7.25098C21.6509 7.25098 16.5278 12.3741 16.5278 18.6937C16.5278 25.0133 21.6509 30.1364 27.9705 30.1364Z" fill="url(#paint3_linear)"/>
<path d="M27.9705 30.1364C34.2902 30.1364 39.4132 25.0133 39.4132 18.6937C39.4132 12.3741 34.2902 7.25098 27.9705 7.25098C21.6509 7.25098 16.5278 12.3741 16.5278 18.6937C16.5278 25.0133 21.6509 30.1364 27.9705 30.1364Z" fill="url(#paint4_linear)"/>
</g>
<g filter="url(#filter2_ddi)">
<path d="M15.6958 13.6498C16.6884 13.6498 17.4931 12.8451 17.4931 11.8525C17.4931 10.8599 16.6884 10.0552 15.6958 10.0552C14.7031 10.0552 13.8984 10.8599 13.8984 11.8525C13.8984 12.8451 14.7031 13.6498 15.6958 13.6498Z" fill="white"/>
<path d="M27.6614 11.9873C29.2555 11.9873 30.5478 10.695 30.5478 9.10081C30.5478 7.50667 29.2555 6.21436 27.6614 6.21436C26.0672 6.21436 24.7749 7.50667 24.7749 9.10081C24.7749 10.695 26.0672 11.9873 27.6614 11.9873Z" fill="white"/>
</g>
<g filter="url(#filter3_ddi)">
<rect x="11.7856" y="8.5" width="25.7143" height="25.7143" rx="12.8571" fill="url(#paint5_linear)"/>
<rect x="11.7856" y="8.5" width="25.7143" height="25.7143" rx="12.8571" fill="url(#paint6_linear)" fill-opacity="0.6"/>
<rect x="11.7856" y="8.5" width="25.7143" height="25.7143" rx="12.8571" fill="url(#paint7_linear)" fill-opacity="0.6"/>
</g>
<g style="mix-blend-mode:overlay" opacity="0.6" filter="url(#filter4_i)">
<rect x="12.3872" y="8.92798" width="22.1622" height="22.1622" rx="11.0811" fill="white"/>
</g>
<g filter="url(#filter5_b)">
<ellipse cx="20.7145" cy="15.7143" rx="1.07143" ry="1.07143" fill="#CFD6DA"/>
</g>
<ellipse cx="20.5981" cy="15.5588" rx="1.13036" ry="1.13036" fill="url(#paint8_linear)"/>
<ellipse cx="20.5981" cy="15.5588" rx="1.13036" ry="1.13036" fill="url(#paint9_radial)"/>
<g filter="url(#filter6_b)">
<ellipse cx="14.7143" cy="16.9999" rx="0.714285" ry="0.714288" fill="#CFD6DA"/>
</g>
<ellipse cx="14.6177" cy="16.9285" rx="0.72857" ry="0.72857" fill="url(#paint10_linear)"/>
<ellipse cx="14.6177" cy="16.9285" rx="0.72857" ry="0.72857" fill="url(#paint11_radial)"/>
<g filter="url(#filter7_d)">
<path d="M14.743 20.5925C14.7102 20.1796 14.3488 19.8715 13.9359 19.9043C13.523 19.9371 13.2149 20.2985 13.2477 20.7114L14.743 20.5925ZM14.7953 26.9539C15.0213 27.3011 15.4858 27.3994 15.833 27.1734C16.1802 26.9475 16.2785 26.4829 16.0525 26.1357L14.7953 26.9539ZM14.4239 23.6877L15.153 23.5118L14.4239 23.6877ZM13.9953 20.6519C13.2477 20.7114 13.2477 20.7114 13.2477 20.7115C13.2477 20.7115 13.2477 20.7116 13.2477 20.7116C13.2477 20.7117 13.2477 20.7119 13.2478 20.712C13.2478 20.7124 13.2478 20.7128 13.2479 20.7133C13.248 20.7145 13.2481 20.716 13.2482 20.718C13.2486 20.722 13.249 20.7277 13.2496 20.7352C13.2509 20.7501 13.2527 20.7717 13.2551 20.7994C13.2599 20.8549 13.267 20.9348 13.2764 21.0341C13.2951 21.2326 13.3231 21.5093 13.3601 21.8233C13.4329 22.4428 13.5441 23.2388 13.6948 23.8635L15.153 23.5118C15.0245 22.9789 14.9214 22.2571 14.8498 21.6481C14.8145 21.3479 14.7877 21.0828 14.7697 20.8929C14.7607 20.798 14.754 20.7222 14.7495 20.6704C14.7473 20.6445 14.7456 20.6246 14.7445 20.6115C14.744 20.6049 14.7436 20.5999 14.7433 20.5967C14.7432 20.5951 14.7431 20.594 14.743 20.5933C14.743 20.5929 14.743 20.5927 14.743 20.5925C14.743 20.5925 14.743 20.5924 14.743 20.5924C14.743 20.5924 14.743 20.5924 14.743 20.5924C14.743 20.5925 14.743 20.5925 13.9953 20.6519ZM13.6948 23.8635C13.9561 24.9466 14.2176 25.6982 14.4206 26.1895C14.5221 26.4352 14.6089 26.6158 14.6739 26.7403C14.7063 26.8026 14.7333 26.8507 14.7539 26.886C14.7641 26.9036 14.7728 26.918 14.7797 26.9293C14.7832 26.9349 14.7863 26.9398 14.7889 26.9439C14.7902 26.9459 14.7914 26.9478 14.7924 26.9494C14.793 26.9503 14.7935 26.9511 14.794 26.9518C14.7942 26.9522 14.7944 26.9526 14.7947 26.9529C14.7948 26.9531 14.7949 26.9533 14.795 26.9534C14.7952 26.9537 14.7953 26.9539 15.4239 26.5448C16.0525 26.1357 16.0527 26.136 16.0528 26.1362C16.0529 26.1363 16.053 26.1365 16.0531 26.1367C16.0533 26.137 16.0535 26.1373 16.0537 26.1375C16.0541 26.1381 16.0544 26.1386 16.0547 26.1391C16.0553 26.14 16.0558 26.1407 16.0561 26.1413C16.0568 26.1424 16.057 26.1427 16.0567 26.1423C16.0562 26.1415 16.0538 26.1375 16.0496 26.1303C16.0411 26.1158 16.0256 26.0883 16.0038 26.0466C15.9603 25.9633 15.8921 25.8231 15.8069 25.6168C15.6364 25.2041 15.3979 24.5271 15.153 23.5118L13.6948 23.8635Z" fill="url(#paint12_linear)"/>
</g>
<path d="M14.5687 20.5832C14.5358 20.1703 14.1745 19.8622 13.7616 19.895C13.3487 19.9279 13.0406 20.2892 13.0734 20.7021L14.5687 20.5832ZM14.621 26.9446C14.8469 27.2918 15.3115 27.3901 15.6587 27.1641C16.0059 26.9382 16.1041 26.4736 15.8782 26.1264L14.621 26.9446ZM14.2496 23.6784L14.9787 23.5025L14.2496 23.6784ZM13.821 20.6427C13.0734 20.7021 13.0734 20.7022 13.0734 20.7022C13.0734 20.7022 13.0734 20.7023 13.0734 20.7024C13.0734 20.7025 13.0734 20.7026 13.0734 20.7028C13.0735 20.7031 13.0735 20.7035 13.0735 20.7041C13.0736 20.7052 13.0738 20.7067 13.0739 20.7087C13.0742 20.7127 13.0747 20.7185 13.0753 20.7259C13.0766 20.7408 13.0784 20.7624 13.0808 20.7901C13.0856 20.8456 13.0927 20.9255 13.1021 21.0248C13.1208 21.2233 13.1488 21.5 13.1857 21.814C13.2586 22.4335 13.3698 23.2296 13.5205 23.8543L14.9787 23.5025C14.8502 22.9697 14.7471 22.2479 14.6755 21.6388C14.6402 21.3386 14.6134 21.0735 14.5954 20.8836C14.5864 20.7887 14.5797 20.7129 14.5752 20.6611C14.573 20.6352 14.5713 20.6154 14.5702 20.6022C14.5697 20.5956 14.5693 20.5906 14.569 20.5875C14.5689 20.5859 14.5688 20.5847 14.5687 20.584C14.5687 20.5836 14.5687 20.5834 14.5687 20.5833C14.5687 20.5832 14.5687 20.5832 14.5687 20.5832C14.5687 20.5832 14.5687 20.5832 14.5687 20.5832C14.5687 20.5832 14.5687 20.5832 13.821 20.6427ZM13.5205 23.8543C13.7818 24.9373 14.0433 25.6889 14.2462 26.1802C14.3477 26.4259 14.4346 26.6066 14.4996 26.731C14.532 26.7933 14.559 26.8415 14.5795 26.8767C14.5898 26.8943 14.5985 26.9087 14.6054 26.92C14.6089 26.9256 14.6119 26.9305 14.6145 26.9346C14.6158 26.9366 14.617 26.9385 14.6181 26.9402C14.6186 26.941 14.6192 26.9418 14.6196 26.9425C14.6199 26.9429 14.6201 26.9433 14.6203 26.9436C14.6205 26.9438 14.6206 26.9441 14.6207 26.9441C14.6208 26.9444 14.621 26.9446 15.2496 26.5355C15.8782 26.1264 15.8784 26.1267 15.8785 26.1269C15.8786 26.127 15.8787 26.1272 15.8788 26.1274C15.879 26.1277 15.8792 26.128 15.8794 26.1283C15.8797 26.1288 15.8801 26.1293 15.8804 26.1298C15.881 26.1307 15.8814 26.1315 15.8818 26.132C15.8825 26.1331 15.8827 26.1335 15.8824 26.133C15.8819 26.1322 15.8795 26.1282 15.8752 26.121C15.8668 26.1065 15.8513 26.079 15.8295 26.0373C15.786 25.954 15.7178 25.8138 15.6326 25.6075C15.4621 25.1948 15.2236 24.5178 14.9787 23.5025L13.5205 23.8543Z" fill="url(#paint13_linear)"/>
<g filter="url(#filter8_d)">
<path fill-rule="evenodd" clip-rule="evenodd" d="M13.9613 20.9569C14.9052 20.8601 15.5934 20.0172 15.4966 19.0733C15.3998 18.1283 11.9809 18.4766 12.0777 19.4216C12.1745 20.3655 13.0174 21.0526 13.9613 20.9569Z" fill="url(#paint14_linear)"/>
<path fill-rule="evenodd" clip-rule="evenodd" d="M13.9613 20.9569C14.9052 20.8601 15.5934 20.0172 15.4966 19.0733C15.3998 18.1283 11.9809 18.4766 12.0777 19.4216C12.1745 20.3655 13.0174 21.0526 13.9613 20.9569Z" fill="url(#paint15_linear)"/>
</g>
<g filter="url(#filter9_ii)">
<path d="M53.446 12.722C53.446 13.496 54.058 14.108 54.832 14.108C55.606 14.108 56.218 13.496 56.218 12.722V3.956H58.882C59.584 3.956 60.16 3.38 60.16 2.678C60.16 1.976 59.584 1.4 58.882 1.4H50.782C50.08 1.4 49.504 1.976 49.504 2.678C49.504 3.38 50.08 3.956 50.782 3.956H53.446V12.722ZM62.2114 8.42C62.4274 7.178 63.1654 6.368 64.2994 6.368C65.4514 6.368 66.1714 7.196 66.3334 8.42H62.2114ZM67.9174 13.046C68.1154 12.866 68.2774 12.596 68.2774 12.236C68.2774 11.624 67.8274 11.156 67.2154 11.156C66.9274 11.156 66.7474 11.228 66.5494 11.372C65.9914 11.786 65.3614 12.02 64.6054 12.02C63.3814 12.02 62.5174 11.372 62.2474 10.13H67.6654C68.3854 10.13 68.9434 9.608 68.9434 8.816C68.9434 6.818 67.5214 4.172 64.2994 4.172C61.4914 4.172 59.5294 6.44 59.5294 9.194V9.23C59.5294 12.182 61.6714 14.216 64.5694 14.216C65.9734 14.216 67.0714 13.766 67.9174 13.046ZM71.1625 12.74C71.1625 13.496 71.7745 14.108 72.5305 14.108C73.2865 14.108 73.8985 13.496 73.8985 12.74V2.12C73.8985 1.364 73.2865 0.751999 72.5305 0.751999C71.7745 0.751999 71.1625 1.364 71.1625 2.12V12.74ZM76.4681 12.74C76.4681 13.496 77.0801 14.108 77.8361 14.108C78.5921 14.108 79.2041 13.496 79.2041 12.74V11.174L80.3021 10.184L82.6961 13.478C83.0201 13.928 83.3441 14.108 83.8841 14.108C84.5681 14.108 85.1621 13.604 85.1621 12.866C85.1621 12.56 85.0541 12.308 84.8201 11.984L82.2461 8.51L84.4061 6.656C84.7841 6.296 85.0361 5.936 85.0361 5.468C85.0361 4.838 84.5681 4.244 83.8301 4.244C83.3441 4.244 83.0201 4.478 82.6241 4.856L79.2041 8.096V2.12C79.2041 1.364 78.5921 0.751999 77.8361 0.751999C77.0801 0.751999 76.4681 1.364 76.4681 2.12V12.74ZM91.6084 14.216C94.6144 14.216 96.8464 11.966 96.8464 9.194V9.158C96.8464 6.386 94.6324 4.172 91.6444 4.172C88.6384 4.172 86.4064 6.422 86.4064 9.194V9.23C86.4064 12.002 88.6204 14.216 91.6084 14.216ZM91.6444 11.858C90.1324 11.858 89.1064 10.616 89.1064 9.194V9.158C89.1064 7.736 90.0424 6.53 91.6084 6.53C93.1204 6.53 94.1464 7.772 94.1464 9.194V9.23C94.1464 10.652 93.2104 11.858 91.6444 11.858ZM98.8275 12.74C98.8275 13.496 99.4395 14.108 100.196 14.108C100.952 14.108 101.564 13.496 101.564 12.74V8.618C101.564 7.322 102.194 6.656 103.22 6.656C104.246 6.656 104.822 7.322 104.822 8.618V12.74C104.822 13.496 105.434 14.108 106.19 14.108C106.946 14.108 107.558 13.496 107.558 12.74V8.618C107.558 7.322 108.188 6.656 109.214 6.656C110.24 6.656 110.816 7.322 110.816 8.618V12.74C110.816 13.496 111.428 14.108 112.184 14.108C112.94 14.108 113.552 13.496 113.552 12.74V7.718C113.552 5.396 112.328 4.172 110.294 4.172C108.98 4.172 107.972 4.712 107.126 5.702C106.622 4.73 105.668 4.172 104.408 4.172C103.022 4.172 102.194 4.91 101.564 5.72V5.612C101.564 4.856 100.952 4.244 100.196 4.244C99.4395 4.244 98.8275 4.856 98.8275 5.612V12.74Z" fill="#404041"/>
<path d="M51.688 38.536C51.688 39.912 52.776 41 54.152 41H60.424C67.464 41 72.328 36.104 72.328 29.8V29.736C72.328 23.432 67.464 18.6 60.424 18.6H54.152C52.776 18.6 51.688 19.688 51.688 21.064V38.536ZM56.616 36.552V23.048H60.424C64.456 23.048 67.176 25.832 67.176 29.8V29.864C67.176 33.832 64.456 36.552 60.424 36.552H56.616ZM80.1433 31.08C80.5273 28.872 81.8393 27.432 83.8553 27.432C85.9033 27.432 87.1833 28.904 87.4713 31.08H80.1433ZM90.2873 39.304C90.6393 38.984 90.9272 38.504 90.9272 37.864C90.9272 36.776 90.1273 35.944 89.0393 35.944C88.5273 35.944 88.2073 36.072 87.8553 36.328C86.8633 37.064 85.7433 37.48 84.3993 37.48C82.2233 37.48 80.6873 36.328 80.2073 34.12H89.8393C91.1193 34.12 92.1112 33.192 92.1112 31.784C92.1112 28.232 89.5833 23.528 83.8553 23.528C78.8633 23.528 75.3753 27.56 75.3753 32.456V32.52C75.3753 37.768 79.1833 41.384 84.3353 41.384C86.8313 41.384 88.7833 40.584 90.2873 39.304ZM101.848 41.32C105.56 41.32 108.408 39.592 108.408 35.784V35.72C108.408 32.584 105.624 31.432 103.224 30.632C101.368 29.992 99.7363 29.544 99.7363 28.584V28.52C99.7363 27.848 100.344 27.336 101.528 27.336C102.552 27.336 103.864 27.752 105.24 28.424C105.56 28.584 105.784 28.648 106.136 28.648C107.224 28.648 108.088 27.816 108.088 26.728C108.088 25.896 107.64 25.256 106.936 24.904C105.272 24.072 103.416 23.592 101.624 23.592C98.1683 23.592 95.3523 25.544 95.3523 29.032V29.096C95.3523 32.424 98.0723 33.544 100.472 34.248C102.36 34.824 104.024 35.176 104.024 36.232V36.296C104.024 37.064 103.384 37.576 101.976 37.576C100.6 37.576 98.9683 37.064 97.3363 36.04C97.0803 35.88 96.7283 35.784 96.3763 35.784C95.2883 35.784 94.4563 36.616 94.4563 37.704C94.4563 38.472 94.8723 39.048 95.3843 39.368C97.4643 40.712 99.7363 41.32 101.848 41.32ZM111.831 19.816C111.831 21.224 113.015 22.12 114.551 22.12C116.087 22.12 117.271 21.224 117.271 19.816V19.752C117.271 18.344 116.087 17.48 114.551 17.48C113.015 17.48 111.831 18.344 111.831 19.752V19.816ZM112.119 38.76C112.119 40.104 113.207 41.192 114.551 41.192C115.895 41.192 116.983 40.104 116.983 38.76V26.088C116.983 24.744 115.895 23.656 114.551 23.656C113.207 23.656 112.119 24.744 112.119 26.088V38.76ZM129.231 46.184C132.559 46.184 135.023 45.48 136.623 43.88C138.063 42.44 138.799 40.2 138.799 37.128V26.088C138.799 24.744 137.711 23.656 136.367 23.656C135.023 23.656 133.935 24.744 133.935 26.056V26.088C132.623 24.648 131.055 23.528 128.399 23.528C124.463 23.528 120.783 26.408 120.783 31.528V31.592C120.783 36.68 124.399 39.592 128.399 39.592C130.991 39.592 132.559 38.536 133.999 36.808V37.64C133.999 40.712 132.431 42.312 129.103 42.312C127.279 42.312 125.775 41.928 124.367 41.288C124.143 41.192 123.887 41.128 123.567 41.128C122.479 41.128 121.583 42.024 121.583 43.112C121.583 44.008 122.127 44.68 122.959 45C124.975 45.8 126.959 46.184 129.231 46.184ZM129.807 35.56C127.439 35.56 125.647 33.96 125.647 31.592V31.528C125.647 29.192 127.439 27.56 129.807 27.56C132.175 27.56 133.999 29.192 133.999 31.528V31.592C133.999 33.928 132.175 35.56 129.807 35.56ZM143.145 38.76C143.145 40.104 144.233 41.192 145.577 41.192C146.921 41.192 148.009 40.104 148.009 38.76V31.432C148.009 29.128 149.193 27.944 151.049 27.944C152.905 27.944 153.993 29.128 153.993 31.432V38.76C153.993 40.104 155.081 41.192 156.425 41.192C157.769 41.192 158.857 40.104 158.857 38.76V29.896C158.857 25.96 156.713 23.528 153.033 23.528C150.569 23.528 149.129 24.84 148.009 26.28V26.088C148.009 24.744 146.921 23.656 145.577 23.656C144.233 23.656 143.145 24.744 143.145 26.088V38.76Z" fill="#6A7276"/>
</g>
<defs>
<filter id="filter0_ii" x="5" y="1" width="40" height="42" filterUnits="userSpaceOnUse" color-interpolation-filters="sRGB">
<feFlood flood-opacity="0" result="BackgroundImageFix"/>
<feBlend mode="normal" in="SourceGraphic" in2="BackgroundImageFix" result="shape"/>
<feColorMatrix in="SourceAlpha" type="matrix" values="0 0 0 0 0 0 0 0 0 0 0 0 0 0 0 0 0 0 127 0" result="hardAlpha"/>
<feOffset dy="2"/>
<feGaussianBlur stdDeviation="1"/>
<feComposite in2="hardAlpha" operator="arithmetic" k2="-1" k3="1"/>
<feColorMatrix type="matrix" values="0 0 0 0 1 0 0 0 0 1 0 0 0 0 1 0 0 0 0.28 0"/>
<feBlend mode="normal" in2="shape" result="effect1_innerShadow"/>
<feColorMatrix in="SourceAlpha" type="matrix" values="0 0 0 0 0 0 0 0 0 0 0 0 0 0 0 0 0 0 127 0" result="hardAlpha"/>
<feOffset dy="1"/>
<feComposite in2="hardAlpha" operator="arithmetic" k2="-1" k3="1"/>
<feColorMatrix type="matrix" values="0 0 0 0 1 0 0 0 0 1 0 0 0 0 1 0 0 0 0.23 0"/>
<feBlend mode="normal" in2="effect1_innerShadow" result="effect2_innerShadow"/>
</filter>
<filter id="filter1_ddi" x="12.5278" y="5.25098" width="30.8854" height="31.8854" filterUnits="userSpaceOnUse" color-interpolation-filters="sRGB">
<feFlood flood-opacity="0" result="BackgroundImageFix"/>
<feColorMatrix in="SourceAlpha" type="matrix" values="0 0 0 0 0 0 0 0 0 0 0 0 0 0 0 0 0 0 127 0"/>
<feOffset dy="3"/>
<feGaussianBlur stdDeviation="2"/>
<feColorMatrix type="matrix" values="0 0 0 0 0 0 0 0 0 0 0 0 0 0 0 0 0 0 0.55 0"/>
<feBlend mode="normal" in2="BackgroundImageFix" result="effect1_dropShadow"/>
<feColorMatrix in="SourceAlpha" type="matrix" values="0 0 0 0 0 0 0 0 0 0 0 0 0 0 0 0 0 0 127 0"/>
<feOffset dy="1"/>
<feGaussianBlur stdDeviation="1"/>
<feColorMatrix type="matrix" values="0 0 0 0 0 0 0 0 0 0 0 0 0 0 0 0 0 0 0.25 0"/>
<feBlend mode="normal" in2="effect1_dropShadow" result="effect2_dropShadow"/>
<feBlend mode="normal" in="SourceGraphic" in2="effect2_dropShadow" result="shape"/>
<feColorMatrix in="SourceAlpha" type="matrix" values="0 0 0 0 0 0 0 0 0 0 0 0 0 0 0 0 0 0 127 0" result="hardAlpha"/>
<feOffset dy="-2"/>
<feGaussianBlur stdDeviation="2"/>
<feComposite in2="hardAlpha" operator="arithmetic" k2="-1" k3="1"/>
<feColorMatrix type="matrix" values="0 0 0 0 1 0 0 0 0 0.45098 0 0 0 0 0.45098 0 0 0 1 0"/>
<feBlend mode="normal" in2="shape" result="effect3_innerShadow"/>
</filter>
<filter id="filter2_ddi" x="9.89844" y="4.21436" width="24.6494" height="16.4355" filterUnits="userSpaceOnUse" color-interpolation-filters="sRGB">
<feFlood flood-opacity="0" result="BackgroundImageFix"/>
<feColorMatrix in="SourceAlpha" type="matrix" values="0 0 0 0 0 0 0 0 0 0 0 0 0 0 0 0 0 0 127 0"/>
<feOffset dy="3"/>
<feGaussianBlur stdDeviation="2"/>
<feColorMatrix type="matrix" values="0 0 0 0 0 0 0 0 0 0 0 0 0 0 0 0 0 0 0.55 0"/>
<feBlend mode="normal" in2="BackgroundImageFix" result="effect1_dropShadow"/>
<feColorMatrix in="SourceAlpha" type="matrix" values="0 0 0 0 0 0 0 0 0 0 0 0 0 0 0 0 0 0 127 0"/>
<feOffset dy="1"/>
<feGaussianBlur stdDeviation="1"/>
<feColorMatrix type="matrix" values="0 0 0 0 0 0 0 0 0 0 0 0 0 0 0 0 0 0 0.25 0"/>
<feBlend mode="normal" in2="effect1_dropShadow" result="effect2_dropShadow"/>
<feBlend mode="normal" in="SourceGraphic" in2="effect2_dropShadow" result="shape"/>
<feColorMatrix in="SourceAlpha" type="matrix" values="0 0 0 0 0 0 0 0 0 0 0 0 0 0 0 0 0 0 127 0" result="hardAlpha"/>
<feOffset dy="-2"/>
<feGaussianBlur stdDeviation="2"/>
<feComposite in2="hardAlpha" operator="arithmetic" k2="-1" k3="1"/>
<feColorMatrix type="matrix" values="0 0 0 0 0.741176 0 0 0 0 0.776471 0 0 0 0 0.796078 0 0 0 1 0"/>
<feBlend mode="normal" in2="shape" result="effect3_innerShadow"/>
</filter>
<filter id="filter3_ddi" x="0.785645" y="5.5" width="47.7143" height="48.7143" filterUnits="userSpaceOnUse" color-interpolation-filters="sRGB">
<feFlood flood-opacity="0" result="BackgroundImageFix"/>
<feColorMatrix in="SourceAlpha" type="matrix" values="0 0 0 0 0 0 0 0 0 0 0 0 0 0 0 0 0 0 127 0"/>
<feOffset dy="2"/>
<feGaussianBlur stdDeviation="2.5"/>
<feColorMatrix type="matrix" values="0 0 0 0 0 0 0 0 0 0 0 0 0 0 0 0 0 0 0.14 0"/>
<feBlend mode="normal" in2="BackgroundImageFix" result="effect1_dropShadow"/>
<feColorMatrix in="SourceAlpha" type="matrix" values="0 0 0 0 0 0 0 0 0 0 0 0 0 0 0 0 0 0 127 0"/>
<feOffset dy="9"/>
<feGaussianBlur stdDeviation="5.5"/>
<feColorMatrix type="matrix" values="0 0 0 0 0 0 0 0 0 0 0 0 0 0 0 0 0 0 0.34 0"/>
<feBlend mode="normal" in2="effect1_dropShadow" result="effect2_dropShadow"/>
<feBlend mode="normal" in="SourceGraphic" in2="effect2_dropShadow" result="shape"/>
<feColorMatrix in="SourceAlpha" type="matrix" values="0 0 0 0 0 0 0 0 0 0 0 0 0 0 0 0 0 0 127 0" result="hardAlpha"/>
<feOffset dy="-1"/>
<feGaussianBlur stdDeviation="2"/>
<feComposite in2="hardAlpha" operator="arithmetic" k2="-1" k3="1"/>
<feColorMatrix type="matrix" values="0 0 0 0 1 0 0 0 0 1 0 0 0 0 1 0 0 0 0.55 0"/>
<feBlend mode="normal" in2="shape" result="effect3_innerShadow"/>
</filter>
<filter id="filter4_i" x="12.3872" y="3.92798" width="22.1622" height="27.1622" filterUnits="userSpaceOnUse" color-interpolation-filters="sRGB">
<feFlood flood-opacity="0" result="BackgroundImageFix"/>
<feBlend mode="normal" in="SourceGraphic" in2="BackgroundImageFix" result="shape"/>
<feColorMatrix in="SourceAlpha" type="matrix" values="0 0 0 0 0 0 0 0 0 0 0 0 0 0 0 0 0 0 127 0" result="hardAlpha"/>
<feOffset dy="-5"/>
<feGaussianBlur stdDeviation="4"/>
<feComposite in2="hardAlpha" operator="arithmetic" k2="-1" k3="1"/>
<feColorMatrix type="matrix" values="0 0 0 0 0 0 0 0 0 0 0 0 0 0 0 0 0 0 0.55 0"/>
<feBlend mode="normal" in2="shape" result="effect1_innerShadow"/>
</filter>
<filter id="filter5_b" x="15.6431" y="10.6428" width="10.1429" height="10.1429" filterUnits="userSpaceOnUse" color-interpolation-filters="sRGB">
<feFlood flood-opacity="0" result="BackgroundImageFix"/>
<feGaussianBlur in="BackgroundImage" stdDeviation="2"/>
<feComposite in2="SourceAlpha" operator="in" result="effect1_backgroundBlur"/>
<feBlend mode="normal" in="SourceGraphic" in2="effect1_backgroundBlur" result="shape"/>
</filter>
<filter id="filter6_b" x="10" y="12.2856" width="9.42857" height="9.42858" filterUnits="userSpaceOnUse" color-interpolation-filters="sRGB">
<feFlood flood-opacity="0" result="BackgroundImageFix"/>
<feGaussianBlur in="BackgroundImage" stdDeviation="2"/>
<feComposite in2="SourceAlpha" operator="in" result="effect1_backgroundBlur"/>
<feBlend mode="normal" in="SourceGraphic" in2="effect1_backgroundBlur" result="shape"/>
</filter>
<filter id="filter7_d" x="9.24512" y="19.9019" width="10.9287" height="15.393" filterUnits="userSpaceOnUse" color-interpolation-filters="sRGB">
<feFlood flood-opacity="0" result="BackgroundImageFix"/>
<feColorMatrix in="SourceAlpha" type="matrix" values="0 0 0 0 0 0 0 0 0 0 0 0 0 0 0 0 0 0 127 0"/>
<feOffset dy="4"/>
<feGaussianBlur stdDeviation="2"/>
<feColorMatrix type="matrix" values="0 0 0 0 0 0 0 0 0 0 0 0 0 0 0 0 0 0 0.25 0"/>
<feBlend mode="normal" in2="BackgroundImageFix" result="effect1_dropShadow"/>
<feBlend mode="normal" in="SourceGraphic" in2="effect1_dropShadow" result="shape"/>
</filter>
<filter id="filter8_d" x="10.0757" y="17.5151" width="7.43002" height="6.45065" filterUnits="userSpaceOnUse" color-interpolation-filters="sRGB">
<feFlood flood-opacity="0" result="BackgroundImageFix"/>
<feColorMatrix in="SourceAlpha" type="matrix" values="0 0 0 0 0 0 0 0 0 0 0 0 0 0 0 0 0 0 127 0"/>
<feOffset dy="1"/>
<feGaussianBlur stdDeviation="1"/>
<feColorMatrix type="matrix" values="0 0 0 0 0 0 0 0 0 0 0 0 0 0 0 0 0 0 0.25 0"/>
<feBlend mode="normal" in2="BackgroundImageFix" result="effect1_dropShadow"/>
<feBlend mode="normal" in="SourceGraphic" in2="effect1_dropShadow" result="shape"/>
</filter>
<filter id="filter9_ii" x="49.5039" y="0.751953" width="109.353" height="47.432" filterUnits="userSpaceOnUse" color-interpolation-filters="sRGB">
<feFlood flood-opacity="0" result="BackgroundImageFix"/>
<feBlend mode="normal" in="SourceGraphic" in2="BackgroundImageFix" result="shape"/>
<feColorMatrix in="SourceAlpha" type="matrix" values="0 0 0 0 0 0 0 0 0 0 0 0 0 0 0 0 0 0 127 0" result="hardAlpha"/>
<feOffset dy="2"/>
<feGaussianBlur stdDeviation="1"/>
<feComposite in2="hardAlpha" operator="arithmetic" k2="-1" k3="1"/>
<feColorMatrix type="matrix" values="0 0 0 0 1 0 0 0 0 1 0 0 0 0 1 0 0 0 0.28 0"/>
<feBlend mode="normal" in2="shape" result="effect1_innerShadow"/>
<feColorMatrix in="SourceAlpha" type="matrix" values="0 0 0 0 0 0 0 0 0 0 0 0 0 0 0 0 0 0 127 0" result="hardAlpha"/>
<feOffset dy="1"/>
<feComposite in2="hardAlpha" operator="arithmetic" k2="-1" k3="1"/>
<feColorMatrix type="matrix" values="0 0 0 0 1 0 0 0 0 1 0 0 0 0 1 0 0 0 0.23 0"/>
<feBlend mode="normal" in2="effect1_innerShadow" result="effect2_innerShadow"/>
</filter>
<linearGradient id="paint0_linear" x1="13.75" y1="4.21429" x2="39.8214" y2="35.1071" gradientUnits="userSpaceOnUse">
<stop stop-color="#BDC6CB"/>
<stop offset="1" stop-color="#5D666A"/>
</linearGradient>
<radialGradient id="paint1_radial" cx="0" cy="0" r="1" gradientUnits="userSpaceOnUse" gradientTransform="translate(21.25 13.5) rotate(-155.556) scale(12.9461 13.7307)">
<stop stop-color="white"/>
<stop offset="1" stop-color="white" stop-opacity="0"/>
</radialGradient>
<linearGradient id="paint2_linear" x1="27.9705" y1="7.25098" x2="27.9705" y2="30.1364" gradientUnits="userSpaceOnUse">
<stop offset="0.03125" stop-color="#EA1515"/>
<stop offset="0.244792" stop-color="#1D19E1"/>
<stop offset="0.380208" stop-color="#2CCCA6"/>
<stop offset="0.567708" stop-color="#D6B027"/>
<stop offset="0.739583" stop-color="#EC671C"/>
</linearGradient>
<linearGradient id="paint3_linear" x1="27.9705" y1="7.25098" x2="27.9705" y2="30.1364" gradientUnits="userSpaceOnUse">
<stop stop-color="white"/>
<stop offset="1" stop-color="white" stop-opacity="0"/>
</linearGradient>
<linearGradient id="paint4_linear" x1="27.9705" y1="7.25098" x2="27.9705" y2="30.1364" gradientUnits="userSpaceOnUse">
<stop stop-color="#FF5D5D"/>
<stop offset="0.708333" stop-color="#EA1515"/>
</linearGradient>
<linearGradient id="paint5_linear" x1="24.9418" y1="13.9135" x2="33.219" y2="30.6738" gradientUnits="userSpaceOnUse">
<stop stop-color="white"/>
<stop offset="0.473473" stop-color="#CFD6DA"/>
<stop offset="1" stop-color="#CFD6DA"/>
</linearGradient>
<linearGradient id="paint6_linear" x1="26.4414" y1="21.9009" x2="34.2445" y2="29.3248" gradientUnits="userSpaceOnUse">
<stop stop-color="#CFD6DA" stop-opacity="0"/>
<stop offset="1" stop-color="#CFD6DA"/>
</linearGradient>
<linearGradient id="paint7_linear" x1="24.9418" y1="25.0789" x2="24.5591" y2="34.2108" gradientUnits="userSpaceOnUse">
<stop offset="0.329728" stop-color="#CFD6DA" stop-opacity="0"/>
<stop offset="1" stop-color="#CFD6DA"/>
</linearGradient>
<linearGradient id="paint8_linear" x1="19.9702" y1="14.6797" x2="20.4725" y2="16.438" gradientUnits="userSpaceOnUse">
<stop stop-color="#869197"/>
<stop offset="1" stop-color="#6A7276"/>
</linearGradient>
<radialGradient id="paint9_radial" cx="0" cy="0" r="1" gradientUnits="userSpaceOnUse" gradientTransform="translate(20.0958 14.9308) rotate(74.0546) scale(0.914347)">
<stop stop-color="white"/>
<stop offset="1" stop-color="white" stop-opacity="0"/>
</radialGradient>
<linearGradient id="paint10_linear" x1="14.213" y1="16.3619" x2="14.5368" y2="17.4952" gradientUnits="userSpaceOnUse">
<stop stop-color="#869197"/>
<stop offset="1" stop-color="#6A7276"/>
</linearGradient>
<radialGradient id="paint11_radial" cx="0" cy="0" r="1" gradientUnits="userSpaceOnUse" gradientTransform="translate(14.2939 16.5238) rotate(74.0546) scale(0.589341)">
<stop stop-color="white"/>
<stop offset="1" stop-color="white" stop-opacity="0"/>
</radialGradient>
<linearGradient id="paint12_linear" x1="15.7137" y1="26.714" x2="14.1066" y2="20.8212" gradientUnits="userSpaceOnUse">
<stop stop-color="#E1E5E7" stop-opacity="0"/>
<stop offset="0.4375" stop-color="#CFD6DA"/>
</linearGradient>
<linearGradient id="paint13_linear" x1="15.3567" y1="26.7141" x2="13.9282" y2="20.2855" gradientUnits="userSpaceOnUse">
<stop stop-color="#2A2A2C"/>
<stop offset="1" stop-color="#717376"/>
</linearGradient>
<linearGradient id="paint14_linear" x1="13.1251" y1="18.6738" x2="13.4343" y2="19.7898" gradientUnits="userSpaceOnUse">
<stop stop-color="#9A9CA0"/>
<stop offset="1" stop-color="#6B7377"/>
</linearGradient>
<linearGradient id="paint15_linear" x1="13.0433" y1="18.2771" x2="13.1989" y2="19.2167" gradientUnits="userSpaceOnUse">
<stop stop-color="white"/>
<stop offset="1" stop-color="white" stop-opacity="0"/>
</linearGradient>
</defs>
</svg>
